<svg width="317" height="102" viewBox="0 0 317 102" fill="none" xmlns="http://www.w3.org/2000/svg">
<path d="M50.827 101.5C23.0338 101.5 0.5 78.892 0.5 51C0.5 23.108 23.0338 0.5 50.827 0.5C78.6202 0.5 101.154 23.108 101.154 51C101.154 63.8082 96.4027 75.5015 88.5718 84.404C79.3492 94.8888 65.8576 101.5 50.827 101.5Z" stroke="white"/>
<path d="M35.542 45.5096C35.4204 44.0531 34.8276 42.8749 33.7637 41.9751C32.7073 41.0753 31.3394 40.6254 29.6598 40.6254C28.5275 40.6254 27.5205 40.8351 26.6389 41.2545C25.7574 41.6739 25.0658 42.2458 24.5642 42.9702C24.0626 43.6947 23.8118 44.5259 23.8118 45.4638C23.8118 46.0662 23.9258 46.6115 24.1538 47.0995C24.3894 47.5799 24.72 48.0108 25.1456 48.392C25.5712 48.7657 26.0766 49.0936 26.6617 49.3757C27.2469 49.6579 27.8929 49.9057 28.5997 50.1192L31.1532 50.8742C32.0271 51.1411 32.8327 51.4499 33.5699 51.8007C34.3147 52.1515 34.9606 52.5709 35.5078 53.0589C36.0626 53.5393 36.492 54.1036 36.796 54.7518C37.1076 55.4 37.2634 56.1473 37.2634 56.9937C37.2634 58.2291 36.9442 59.3348 36.3058 60.3109C35.675 61.2869 34.7744 62.0571 33.6041 62.6214C32.4413 63.1781 31.0696 63.4564 29.4888 63.4564C27.9841 63.4564 26.6731 63.201 25.556 62.69C24.4464 62.1791 23.5686 61.4699 22.9227 60.5625C22.2767 59.6474 21.9119 58.5951 21.8283 57.4055H23.2875C23.3635 58.374 23.6712 59.2128 24.2108 59.922C24.758 60.6235 25.4838 61.1649 26.3881 61.5462C27.2925 61.9275 28.3261 62.1181 29.4888 62.1181C30.7428 62.1181 31.8486 61.9046 32.8061 61.4776C33.7637 61.0429 34.5123 60.4405 35.0518 59.6703C35.5914 58.9001 35.8612 58.0041 35.8612 56.9823C35.8612 56.1587 35.6674 55.4534 35.2798 54.8662C34.8922 54.279 34.3185 53.7719 33.5585 53.3449C32.8061 52.9178 31.8714 52.5366 30.7542 52.201L28.0297 51.3775C26.2058 50.8208 24.8112 50.0621 23.846 49.1012C22.8885 48.1404 22.4097 46.9432 22.4097 45.5096C22.4097 44.3047 22.7289 43.2371 23.3673 42.3068C24.0056 41.3689 24.872 40.633 25.9664 40.0992C27.0683 39.5654 28.3109 39.2985 29.694 39.2985C31.0848 39.2985 32.3121 39.5692 33.3761 40.1106C34.4401 40.6444 35.2836 41.3803 35.9068 42.3183C36.53 43.2486 36.8758 44.3124 36.9442 45.5096H35.542Z" fill="white"/>
<path d="M49.3697 63.079H42.8948V39.6531H49.8713C52.06 39.6531 53.9334 40.1183 55.4913 41.0486C57.0493 41.9789 58.2424 43.3134 59.0708 45.052C59.9068 46.783 60.3209 48.861 60.3133 51.286C60.3057 53.7643 59.8726 55.8842 59.0138 57.6457C58.155 59.3996 56.9125 60.7455 55.2861 61.6835C53.6598 62.6138 51.6877 63.079 49.3697 63.079ZM44.3197 61.7521H49.3127C51.3951 61.7521 53.1506 61.3365 54.5793 60.5053C56.0081 59.6665 57.0873 58.4655 57.8168 56.9022C58.554 55.339 58.9188 53.4669 58.9112 51.286C58.9112 49.1355 58.5578 47.294 57.851 45.7612C57.1443 44.2208 56.1145 43.0389 54.7617 42.2153C53.4166 41.3917 51.7674 40.98 49.8143 40.98H44.3197V61.7521Z" fill="white"/>
<path d="M65.8735 63.079V39.6531H78.869V40.98H67.2985V50.6912H78.1737V52.018H67.2985V61.7521H79.1426V63.079H65.8735Z" fill="white"/>
<path d="M114.727 61.0658V41.5443H121.006C122.387 41.5443 123.539 41.7953 124.464 42.2973C125.395 42.793 126.095 43.4824 126.563 44.3657C127.038 45.2427 127.276 46.2499 127.276 47.3874C127.276 48.5249 127.038 49.5289 126.563 50.3995C126.095 51.2701 125.398 51.95 124.473 52.4393C123.549 52.9286 122.402 53.1733 121.034 53.1733H115.686V51.5433H120.987C122 51.5433 122.843 51.3749 123.514 51.0381C124.192 50.7013 124.695 50.2216 125.024 49.5988C125.36 48.976 125.528 48.2389 125.528 47.3874C125.528 46.5359 125.36 45.7924 125.024 45.1569C124.689 44.5151 124.182 44.0194 123.504 43.6699C122.833 43.3204 121.984 43.1456 120.958 43.1456H116.503V61.0658H114.727ZM123.305 52.2582L128.093 61.0658H126.041L121.3 52.2582H123.305Z" fill="white"/>
<path d="M136.994 61.3708C135.632 61.3708 134.454 61.0531 133.46 60.4176C132.466 59.7758 131.696 58.8893 131.152 57.7582C130.613 56.6207 130.344 55.3116 130.344 53.831C130.344 52.3567 130.613 51.0477 131.152 49.9038C131.696 48.7536 132.447 47.8544 133.403 47.2063C134.366 46.5517 135.477 46.2245 136.737 46.2245C137.529 46.2245 138.292 46.3706 139.027 46.6629C139.761 46.9489 140.42 47.3906 141.003 47.9879C141.592 48.5789 142.057 49.3255 142.399 50.2279C142.741 51.1239 142.912 52.1851 142.912 53.4116V54.2504H131.513V52.7539H141.183C141.183 51.8134 140.993 50.9682 140.613 50.2184C140.24 49.4622 139.717 48.8648 139.046 48.4264C138.381 47.9879 137.611 47.7687 136.737 47.7687C135.813 47.7687 134.999 48.0165 134.296 48.5122C133.593 49.0078 133.042 49.6623 132.643 50.4757C132.25 51.2891 132.051 52.1788 132.045 53.1447V54.0407C132.045 55.2036 132.244 56.2204 132.643 57.0909C133.048 57.9552 133.622 58.6256 134.363 59.1022C135.103 59.5788 135.981 59.8171 136.994 59.8171C137.684 59.8171 138.289 59.7091 138.808 59.493C139.334 59.277 139.774 58.9878 140.129 58.6256C140.49 58.257 140.762 57.8535 140.946 57.415L142.551 57.9393C142.33 58.5557 141.965 59.1244 141.459 59.6455C140.958 60.1666 140.331 60.586 139.578 60.9037C138.831 61.2151 137.969 61.3708 136.994 61.3708Z" fill="white"/>
<path d="M156.442 49.6369L154.894 50.0754C154.742 49.6369 154.526 49.2398 154.248 48.8839C153.969 48.528 153.605 48.2453 153.155 48.0356C152.712 47.8258 152.161 47.721 151.502 47.721C150.514 47.721 149.704 47.9561 149.07 48.4264C148.437 48.8966 148.12 49.5035 148.12 50.247C148.12 50.8761 148.336 51.3876 148.766 51.7816C149.203 52.1693 149.875 52.4775 150.78 52.7062L152.984 53.2496C154.207 53.5482 155.122 54.0216 155.73 54.6698C156.344 55.318 156.651 56.1314 156.651 57.11C156.651 57.9361 156.423 58.6701 155.967 59.3119C155.511 59.9537 154.875 60.4589 154.058 60.8275C153.247 61.1897 152.307 61.3708 151.236 61.3708C149.811 61.3708 148.637 61.0499 147.712 60.4081C146.787 59.7599 146.195 58.8258 145.935 57.6057L147.56 57.2053C147.769 58.0759 148.177 58.7336 148.785 59.1785C149.4 59.6233 150.207 59.8457 151.208 59.8457C152.329 59.8457 153.225 59.5947 153.896 59.0927C154.568 58.5843 154.903 57.9488 154.903 57.1863C154.903 56.5953 154.707 56.0996 154.314 55.6993C153.922 55.2926 153.326 54.9939 152.528 54.8033L150.144 54.2313C148.877 53.9263 147.94 53.4434 147.332 52.7825C146.724 52.1216 146.42 51.3018 146.42 50.3232C146.42 49.5162 146.638 48.8076 147.075 48.1976C147.512 47.5812 148.114 47.0982 148.88 46.7487C149.647 46.3992 150.521 46.2245 151.502 46.2245C152.839 46.2245 153.906 46.5295 154.704 47.1395C155.508 47.7432 156.087 48.5757 156.442 49.6369Z" fill="white"/>
<path d="M166.253 61.3708C164.891 61.3708 163.713 61.0531 162.719 60.4176C161.725 59.7758 160.955 58.8893 160.411 57.7582C159.872 56.6207 159.603 55.3116 159.603 53.831C159.603 52.3567 159.872 51.0477 160.411 49.9038C160.955 48.7536 161.706 47.8544 162.662 47.2063C163.625 46.5517 164.736 46.2245 165.996 46.2245C166.788 46.2245 167.551 46.3706 168.286 46.6629C169.02 46.9489 169.679 47.3906 170.262 47.9879C170.851 48.5789 171.316 49.3255 171.658 50.2279C172 51.1239 172.171 52.1851 172.171 53.4116V54.2504H160.772V52.7539H170.442C170.442 51.8134 170.252 50.9682 169.872 50.2184C169.499 49.4622 168.976 48.8648 168.305 48.4264C167.64 47.9879 166.87 47.7687 165.996 47.7687C165.072 47.7687 164.258 48.0165 163.555 48.5122C162.852 49.0078 162.301 49.6623 161.902 50.4757C161.509 51.2891 161.31 52.1788 161.304 53.1447V54.0407C161.304 55.2036 161.503 56.2204 161.902 57.0909C162.307 57.9552 162.88 58.6256 163.621 59.1022C164.362 59.5788 165.24 59.8171 166.253 59.8171C166.943 59.8171 167.548 59.7091 168.067 59.493C168.593 59.277 169.033 58.9878 169.388 58.6256C169.749 58.257 170.021 57.8535 170.205 57.415L171.81 57.9393C171.589 58.5557 171.224 59.1244 170.718 59.6455C170.217 60.1666 169.59 60.586 168.837 60.9037C168.089 61.2151 167.228 61.3708 166.253 61.3708Z" fill="white"/>
<path d="M179.973 61.3994C179.092 61.3994 178.288 61.2278 177.56 60.8847C176.832 60.5352 176.252 60.0332 175.821 59.3786C175.391 58.7177 175.175 57.9171 175.175 56.9766C175.175 56.2521 175.312 55.6421 175.584 55.1464C175.856 54.6508 176.243 54.2441 176.743 53.9263C177.243 53.6086 177.835 53.3576 178.519 53.1733C179.203 52.989 179.957 52.846 180.78 52.7444C181.597 52.6427 182.288 52.5537 182.851 52.4775C183.421 52.4012 183.855 52.2805 184.153 52.1152C184.45 51.95 184.599 51.6831 184.599 51.3146V50.9714C184.599 49.9737 184.301 49.1889 183.706 48.617C183.117 48.0387 182.269 47.7496 181.16 47.7496C180.109 47.7496 179.251 47.9815 178.586 48.4454C177.927 48.9093 177.465 49.4558 177.199 50.0849L175.593 49.5035C175.923 48.7028 176.379 48.0641 176.961 47.5875C177.544 47.1046 178.196 46.7583 178.918 46.5486C179.64 46.3325 180.372 46.2245 181.113 46.2245C181.67 46.2245 182.25 46.2976 182.851 46.4437C183.459 46.5899 184.023 46.8441 184.542 47.2063C185.061 47.5621 185.483 48.061 185.806 48.7028C186.129 49.3383 186.29 50.1453 186.29 51.1239V61.0658H184.599V58.7495H184.495C184.292 59.1816 183.991 59.601 183.592 60.0077C183.193 60.4144 182.693 60.7481 182.091 61.0086C181.49 61.2691 180.783 61.3994 179.973 61.3994ZM180.201 59.8457C181.1 59.8457 181.879 59.6455 182.538 59.2452C183.196 58.8448 183.703 58.3142 184.058 57.6533C184.419 56.9861 184.599 56.2521 184.599 55.4514V53.3353C184.472 53.4561 184.26 53.5641 183.963 53.6594C183.671 53.7548 183.332 53.8405 182.946 53.9168C182.566 53.9867 182.186 54.0471 181.806 54.0979C181.426 54.1487 181.084 54.1932 180.78 54.2313C179.957 54.333 179.254 54.4919 178.671 54.708C178.089 54.924 177.642 55.2227 177.332 55.604C177.022 55.9789 176.866 56.4618 176.866 57.0528C176.866 57.9425 177.183 58.632 177.816 59.1213C178.45 59.6042 179.244 59.8457 180.201 59.8457Z" fill="white"/>
<path d="M190.788 61.0658V46.4246H192.432V48.6742H192.555C192.846 47.9371 193.353 47.3429 194.075 46.8917C194.803 46.4342 195.627 46.2054 196.545 46.2054C196.684 46.2054 196.839 46.2086 197.01 46.2149C197.181 46.2213 197.324 46.2277 197.438 46.234V47.9593C197.362 47.9466 197.229 47.9275 197.039 47.9021C196.849 47.8767 196.643 47.864 196.421 47.864C195.661 47.864 194.984 48.026 194.389 48.3501C193.8 48.6678 193.334 49.1095 192.992 49.6751C192.65 50.2406 192.479 50.8856 192.479 51.6101V61.0658H190.788Z" fill="white"/>
<path d="M205.579 61.3708C204.274 61.3708 203.138 61.0436 202.169 60.389C201.206 59.7345 200.459 58.8385 199.927 57.701C199.395 56.5635 199.129 55.2672 199.129 53.8119C199.129 52.344 199.398 51.0381 199.936 49.8943C200.481 48.7505 201.235 47.8544 202.197 47.2063C203.16 46.5517 204.278 46.2245 205.551 46.2245C206.526 46.2245 207.409 46.4151 208.201 46.7964C208.993 47.1713 209.645 47.7019 210.158 48.3882C210.677 49.0682 211.003 49.8625 211.136 50.7712H209.426C209.249 49.9451 208.822 49.2398 208.144 48.6551C207.473 48.0641 206.618 47.7687 205.579 47.7687C204.648 47.7687 203.825 48.0228 203.109 48.5312C202.394 49.0332 201.833 49.7354 201.428 50.6378C201.029 51.5338 200.829 52.5728 200.829 53.7548C200.829 54.9431 201.026 55.9948 201.418 56.9098C201.811 57.8186 202.362 58.5303 203.071 59.045C203.787 59.5597 204.623 59.8171 205.579 59.8171C206.225 59.8171 206.814 59.6964 207.346 59.4549C207.884 59.2071 208.334 58.8575 208.695 58.4064C209.062 57.9552 209.309 57.4182 209.436 56.7955H211.146C211.019 57.6788 210.706 58.4667 210.205 59.1594C209.711 59.8457 209.069 60.3858 208.277 60.7798C207.492 61.1738 206.592 61.3708 205.579 61.3708Z" fill="white"/>
<path d="M216.461 51.9151V61.0658H214.77V41.5443H216.461V48.7219H216.613C216.955 47.9656 217.484 47.362 218.199 46.9108C218.921 46.4596 219.833 46.234 220.935 46.234C221.923 46.234 222.791 46.4374 223.538 46.8441C224.286 47.2508 224.868 47.8513 225.286 48.6456C225.704 49.4399 225.913 50.4186 225.913 51.5815V61.0658H224.213V51.6863C224.213 50.4789 223.877 49.5289 223.206 48.8362C222.541 48.1372 221.641 47.7877 220.508 47.7877C219.729 47.7877 219.035 47.9529 218.427 48.2834C217.819 48.6138 217.338 49.0904 216.983 49.7132C216.635 50.3296 216.461 51.0635 216.461 51.9151Z" fill="white"/>
<path d="M251.702 47.6447C251.525 46.9966 251.265 46.3897 250.923 45.8241C250.581 45.2522 250.157 44.7534 249.65 44.3276C249.15 43.8955 248.571 43.5587 247.912 43.3172C247.26 43.0757 246.531 42.955 245.727 42.955C244.46 42.955 243.327 43.2854 242.326 43.9463C241.326 44.6072 240.534 45.5604 239.951 46.8059C239.375 48.0514 239.087 49.5511 239.087 51.305C239.087 53.0526 239.378 54.5491 239.961 55.7946C240.543 57.0401 241.341 57.9965 242.355 58.6637C243.374 59.3246 244.54 59.6551 245.851 59.6551C247.048 59.6551 248.105 59.3882 249.023 58.8544C249.942 58.3206 250.657 57.558 251.17 56.5667C251.69 55.5754 251.943 54.3966 251.93 53.0303L252.5 53.2114H246.269V51.6101H253.659V53.2114C253.659 54.8763 253.324 56.3157 252.652 57.5294C251.981 58.7432 251.06 59.6805 249.888 60.3414C248.716 61.0022 247.371 61.3327 245.851 61.3327C244.153 61.3327 242.668 60.9228 241.395 60.1031C240.122 59.277 239.131 58.1141 238.422 56.6143C237.719 55.1083 237.367 53.3385 237.367 51.305C237.367 49.7736 237.57 48.3914 237.975 47.1586C238.381 45.9258 238.954 44.8709 239.695 43.994C240.442 43.117 241.326 42.4466 242.345 41.9827C243.365 41.5125 244.492 41.2774 245.727 41.2774C246.791 41.2774 247.763 41.4458 248.643 41.7826C249.53 42.1194 250.309 42.5832 250.98 43.1742C251.658 43.7589 252.212 44.4356 252.643 45.2045C253.08 45.9671 253.374 46.7805 253.526 47.6447H251.702Z" fill="white"/>
<path d="M257.718 61.0658V46.4246H259.361V48.6742H259.485C259.776 47.9371 260.283 47.3429 261.005 46.8917C261.733 46.4342 262.557 46.2054 263.475 46.2054C263.614 46.2054 263.769 46.2086 263.94 46.2149C264.111 46.2213 264.254 46.2277 264.368 46.234V47.9593C264.292 47.9466 264.159 47.9275 263.969 47.9021C263.779 47.8767 263.573 47.864 263.351 47.864C262.591 47.864 261.914 48.026 261.318 48.3501C260.729 48.6678 260.264 49.1095 259.922 49.6751C259.58 50.2406 259.409 50.8856 259.409 51.6101V61.0658H257.718Z" fill="white"/>
<path d="M272.481 61.3708C271.22 61.3708 270.106 61.0499 269.137 60.4081C268.174 59.7663 267.42 58.8798 266.876 57.7487C266.331 56.6112 266.059 55.2989 266.059 53.8119C266.059 52.3122 266.331 50.9936 266.876 49.8562C267.42 48.7123 268.174 47.8227 269.137 47.1872C270.106 46.5454 271.22 46.2245 272.481 46.2245C273.741 46.2245 274.852 46.5454 275.815 47.1872C276.778 47.829 277.531 48.7187 278.076 49.8562C278.627 50.9936 278.902 52.3122 278.902 53.8119C278.902 55.2989 278.63 56.6112 278.085 57.7487C277.541 58.8798 276.784 59.7663 275.815 60.4081C274.852 61.0499 273.741 61.3708 272.481 61.3708ZM272.481 59.8171C273.494 59.8171 274.352 59.5439 275.055 58.9973C275.758 58.4508 276.29 57.7232 276.651 56.8145C277.018 55.9058 277.202 54.9049 277.202 53.8119C277.202 52.7189 277.018 51.7149 276.651 50.7998C276.29 49.8848 275.758 49.1508 275.055 48.5979C274.352 48.0451 273.494 47.7687 272.481 47.7687C271.474 47.7687 270.615 48.0451 269.906 48.5979C269.203 49.1508 268.668 49.8848 268.301 50.7998C267.94 51.7149 267.759 52.7189 267.759 53.8119C267.759 54.9049 267.94 55.9058 268.301 56.8145C268.668 57.7232 269.203 58.4508 269.906 58.9973C270.609 59.5439 271.467 59.8171 272.481 59.8171Z" fill="white"/>
<path d="M291.886 55.4705V46.4246H293.577V61.0658H291.886V58.6351H291.753C291.411 59.385 290.869 60.0109 290.129 60.5129C289.388 61.0086 288.482 61.2564 287.412 61.2564C286.481 61.2564 285.654 61.0531 284.932 60.6464C284.21 60.2333 283.643 59.6296 283.232 58.8353C282.82 58.041 282.614 57.0655 282.614 55.909V46.4246H284.305V55.8041C284.305 56.948 284.641 57.8694 285.312 58.5684C285.983 59.2611 286.845 59.6074 287.896 59.6074C288.555 59.6074 289.188 59.4485 289.796 59.1308C290.404 58.8131 290.904 58.3492 291.297 57.7391C291.69 57.1227 291.886 56.3665 291.886 55.4705Z" fill="white"/>
<path d="M298.054 66.5562V46.4246H299.697V49.2175H299.897C300.099 48.779 300.378 48.331 300.733 47.8735C301.087 47.4096 301.556 47.0188 302.138 46.7011C302.727 46.3833 303.468 46.2245 304.361 46.2245C305.565 46.2245 306.616 46.5422 307.515 47.1777C308.421 47.8068 309.124 48.6901 309.624 49.8276C310.131 50.9587 310.384 52.2773 310.384 53.7833C310.384 55.2958 310.131 56.6207 309.624 57.7582C309.124 58.8957 308.421 59.7821 307.515 60.4176C306.616 61.0531 305.571 61.3708 304.38 61.3708C303.5 61.3708 302.762 61.212 302.167 60.8942C301.578 60.5765 301.1 60.1857 300.733 59.7218C300.372 59.2515 300.093 58.794 299.897 58.3492H299.745V66.5562H298.054ZM299.726 53.7548C299.726 54.9367 299.9 55.9852 300.248 56.9003C300.603 57.809 301.109 58.5239 301.768 59.045C302.433 59.5597 303.237 59.8171 304.181 59.8171C305.15 59.8171 305.967 59.5502 306.632 59.0164C307.303 58.4763 307.813 57.7487 308.161 56.8336C308.516 55.9185 308.693 54.8922 308.693 53.7548C308.693 52.63 308.519 51.6164 308.171 50.714C307.829 49.8117 307.322 49.0968 306.651 48.5693C305.979 48.0356 305.156 47.7687 304.181 47.7687C303.231 47.7687 302.423 48.026 301.758 48.5407C301.093 49.0491 300.587 49.7545 300.239 50.6569C299.897 51.5529 299.726 52.5855 299.726 53.7548Z" fill="white"/>
</svg>
